<svg xmlns="http://www.w3.org/2000/svg" version="1.1" width="40" height="40" viewBox="0 0 40 40"><defs/><path fill="#304454" stroke="#304454" d="M 29.421,23.3847 L 30.322,23.6367 L 31.099,24.0567 L 31.765,24.6187 L 32.437,25.1827 L 32.999,25.8897 L 33.474,26.7127 L 33.784,26.5337 L 33.288,25.6757 L 32.7,24.9377 L 31.997,24.3457 L 31.289,23.7497 L 30.473,23.3087 L 29.517,23.0407 L 29.421,23.3847 Z" style="stroke-miterlimit: 10" stroke-miterlimit="10" transform=""/><path fill="#304454" stroke="#304454" d="M 27.9731,30.6246 L 28.4731,31.4156 L 28.7691,32.2476 L 28.8871,33.1106 L 29.0091,33.9796 L 28.9521,34.8816 L 28.7551,35.8106 L 29.1041,35.8846 L 29.3111,34.9156 L 29.3681,33.9746 L 29.2431,33.0636 L 29.1161,32.1466 L 28.8061,31.2726 L 28.2741,30.4326 L 27.9731,30.6246 Z" style="stroke-miterlimit: 10" stroke-miterlimit="10" transform=""/><path fill="#304454" stroke="#304454" d="M 23.3788,34.7394 L 23.8788,35.5304 L 24.1748,36.3624 L 24.2928,37.2254 L 24.4148,38.0944 L 24.3578,38.9964 L 24.1598,39.9254 L 24.5098,40.0004 L 24.7158,39.0304 L 24.7738,38.0894 L 24.6488,37.1784 L 24.5218,36.2624 L 24.2108,35.3884 L 23.6798,34.5484 L 23.3788,34.7394 Z" style="stroke-miterlimit: 10" stroke-miterlimit="10" transform=""/><path fill="#2d353a" stroke="none" d="M 23.369,8.551 C 23.679,8.395 23.986,8.257 24.296,8.138 C 24.615,8.015 24.938,7.912 25.259,7.83 C 26.911,7.408 28.48,7.573 29.707,8.432 L 29.707,8.432 L 29.707,8.432 L 29.707,8.432 C 30.394,8.909 30.91,9.561 31.266,10.338 C 31.352,10.528 31.431,10.723 31.497,10.926 C 31.837,11.95 31.928,13.147 31.778,14.422 C 31.938,14.793 32.075,15.176 32.192,15.571 C 32.321,15.994 32.425,16.426 32.502,16.866 C 32.907,19.123 32.69,21.606 31.829,24.028 C 31.802,24.365 31.761,24.705 31.705,25.046 C 31.649,25.394 31.58,25.741 31.5,26.084 C 31.078,27.86 30.312,29.61 29.185,31.224 L 29.185,31.224 L 29.185,31.224 C 26.993,34.364 23.852,36.401 20.544,37.157 C 17.231,37.912 13.754,37.379 10.891,35.384 L 10.891,35.384 L 10.891,35.384 L 10.891,35.384 L 10.891,35.384 C 8.03298,33.387 6.33498,30.306 5.90298,26.935 C 5.47198,23.57 6.29898,19.919 8.49298,16.778 L 8.49298,16.778 L 8.49298,16.778 L 8.49298,16.778 L 8.49298,16.778 C 9.27598,15.654 10.179,14.677 11.169,13.844 C 11.328,13.71 11.492,13.579 11.658,13.452 C 12.502,12.8 13.402,12.253 14.339,11.813 C 14.718,11.496 15.107,11.204 15.505,10.933 C 15.907,10.658 16.318,10.405 16.739,10.175 C 18.869,9.006 21.173,8.44 23.369,8.551 L 23.369,8.551 Z" transform=""/><path fill="#d14e3f" stroke="none" d="M 7.10651,17.1208 C 11.7055,10.5328 20.2835,8.5768 26.2675,12.7508 C 32.2485,16.9298 33.3695,25.6568 28.7695,32.2468 C 24.1705,38.8348 15.5885,40.7938 9.60851,36.6168 C 3.62551,32.4398 2.50451,23.7128 7.10651,17.1208 Z" transform=""/><path fill="#ffffff" stroke="none" d="M 22.5006,10.2168 C 23.0996,9.35679 24.2806,9.14679 25.1396,9.74579 C 25.9276,10.2978 26.1706,11.3408 25.7386,12.1718 C 24.6226,11.5438 23.4286,11.1248 22.2036,10.8978 C 22.2556,10.6588 22.3536,10.4258 22.5006,10.2168 L 22.5006,10.2168 Z" transform=""/><path fill="#ffffff" stroke="none" d="M 27.5651,13.4468 C 28.1971,12.7538 29.2591,12.6218 30.0471,13.1738 C 30.9051,13.7718 31.1171,14.9528 30.5171,15.8108 C 30.3691,16.0238 30.1841,16.1958 29.9801,16.3248 C 29.3451,15.2538 28.5381,14.2798 27.5651,13.4468 M 27.5651,13.4468 L 27.5651,13.4468 Z" transform=""/><path fill="#e6e7e8" stroke="none" d="M 22.9064,9.79297 C 23.5454,9.30597 24.4464,9.26397 25.1394,9.74597 C 25.3924,9.92097 25.5884,10.146 25.7224,10.402 C 24.8214,10.051 23.8724,9.84997 22.9064,9.79297 M 22.9064,9.79297 L 22.9064,9.79297 Z" transform=""/><path fill="#e6e7e8" stroke="none" d="M 29.2315,12.8509 C 29.5175,12.8899 29.7975,12.9959 30.0475,13.1739 C 30.7395,13.6569 31.0105,14.5169 30.7735,15.2829 C 30.3865,14.3989 29.8715,13.5769 29.2315,12.8509 L 29.2315,12.8509 Z" transform=""/><path fill="#304454" stroke="none" d="M 28.0878,8.04525 L 28.3858,7.15725 L 28.4728,6.28125 L 28.3848,5.41525 L 28.2958,4.54325 L 28.0288,3.68025 L 27.6128,2.82425 L 27.9358,2.66625 L 28.3668,3.56125 L 28.6478,4.46325 L 28.7408,5.37825 L 28.8348,6.29525 L 28.7408,7.22225 L 28.4248,8.16125 L 28.0878,8.04525 Z" transform=""/><path fill="#304454" stroke="none" d="M 30.628,9.82137 L 31.358,9.23637 L 32.151,8.84837 L 32.996,8.63437 L 33.845,8.41537 L 34.748,8.37037 L 35.694,8.46237 L 35.728,8.10737 L 34.742,8.01037 L 33.8,8.05837 L 32.909,8.28537 L 32.013,8.51537 L 31.179,8.92137 L 30.404,9.54337 L 30.628,9.82137 Z" transform=""/><path fill="#7a3440" stroke="none" d="M 12.8805,25.2493 C 15.8035,19.2133 21.0985,14.6503 26.5365,12.8823 C 26.4465,12.8153 26.3595,12.7473 26.2675,12.6823 C 20.2835,8.5083 11.7055,10.4643 7.10651,17.0523 C 2.50451,23.6443 3.62451,32.3713 9.60851,36.5493 C 10.1255,36.9103 10.6635,37.2223 11.2155,37.4923 C 10.2835,33.9683 10.7605,29.6283 12.8805,25.2493 Z" transform=""/><path fill="#2d353a" stroke="none" d="M 9.79362,18.5654 C 10.4296,17.8094 11.5446,17.5304 12.2876,17.9414 C 13.0306,18.3544 13.1196,19.2994 12.4836,20.0554 C 11.8476,20.8124 10.7306,21.0924 9.98762,20.6814 C 9.24462,20.2704 9.15862,19.3214 9.79362,18.5654 Z" transform=""/><path fill="#2d353a" stroke="none" d="M 21.618,25.2477 C 21.84,24.2847 21.332,23.4797 20.482,23.4517 C 19.634,23.4237 18.766,24.1807 18.544,25.1437 C 18.322,26.1067 18.832,26.9077 19.681,26.9367 C 20.531,26.9657 21.396,26.2107 21.618,25.2477 Z" transform=""/><path fill="#2d353a" stroke="none" d="M 19.0532,33.5471 C 19.2972,32.4901 18.7382,31.6071 17.8062,31.5751 C 16.8752,31.5451 15.9222,32.3761 15.6792,33.4331 C 15.4352,34.4901 15.9952,35.3691 16.9272,35.4011 C 17.8602,35.4321 18.8102,34.6041 19.0532,33.5471 Z" transform=""/><path fill="#2d353a" stroke="none" d="M 29.0185,21.4349 C 28.6865,20.4029 27.7545,19.9299 26.9375,20.3799 C 26.1225,20.8299 25.7305,22.0319 26.0625,23.0649 C 26.3945,24.0979 27.3245,24.5659 28.1415,24.1149 C 28.9585,23.6649 29.3505,22.4669 29.0185,21.4349 Z" transform=""/><path fill="#2d353a" stroke="none" d="M 17.3055,11.6166 C 18.2675,11.3906 19.3275,11.8346 19.6765,12.6086 C 20.0255,13.3836 19.5315,14.1946 18.5695,14.4206 C 17.6065,14.6466 16.5445,14.2026 16.1955,13.4286 C 15.8465,12.6536 16.3445,11.8426 17.3055,11.6166 Z" transform=""/><path fill="#2d353a" stroke="none" d="M 5.51117,28.0293 C 5.30217,27.0633 5.76617,26.0113 6.54617,25.6763 C 7.32717,25.3413 8.12917,25.8503 8.33717,26.8163 C 8.54617,27.7823 8.08317,28.8373 7.30317,29.1723 C 6.52217,29.5073 5.72017,28.9943 5.51117,28.0293 Z" transform=""/></svg>